<?xml version="1.0" encoding="UTF-8"?>
<svg preserveAspectRatio="none" xmlns="http://www.w3.org/2000/svg" xmlns:xlink="http://www.w3.org/1999/xlink" width="2048pt" height="2048pt" viewBox="0 0 2048 2048" version="1.1">
<g id="surface1">
<path style=" stroke:none;fill-rule:nonzero;fill:rgb(0%,0%,0%);fill-opacity:1;" d="M 1833.601562 257.199219 C 1602.398438 62.800781 1245.199219 92 1024 317.199219 C 802.800781 92 445.601562 62.398438 214.398438 257.199219 C -86.398438 510.398438 -42.398438 923.199219 172 1142 L 873.601562 1856.800781 C 913.601562 1897.601562 967.199219 1920.398438 1024 1920.398438 C 1081.199219 1920.398438 1134.398438 1898 1174.398438 1857.199219 L 1876 1142.398438 C 2090 923.601562 2134.800781 510.800781 1833.601562 257.199219 Z M 1739.199219 1007.199219 L 1037.601562 1722 C 1028 1731.601562 1020 1731.601562 1010.398438 1722 L 308.800781 1007.199219 C 162.800781 858.398438 133.199219 576.800781 338 404.398438 C 493.601562 273.601562 733.601562 293.199219 884 446.398438 L 1024 589.199219 L 1164 446.398438 C 1315.199219 292.398438 1555.199219 273.601562 1710 404 C 1914.398438 576.398438 1884 859.601562 1739.199219 1007.199219 Z M 1739.199219 1007.199219 "/>
</g>
</svg>
